:SAMPLES-PER-SECOND 30
:FULLY-SPECIFIED
:DEGREES
605
root  41.7869 39.152 -51.0634 8.97449 1.58771 4.20609
RightUpLeg  -30.8867 -21.1774 -5.05183
RightLeg  12.382 -15.6816 0.186758
RightFoot  2.38888 -0.579069 4.93566
RightToes  5.82063e-011 0 -3.6325e-017
Spine  62.9513 -4.01351 6.05783
Spine1  13.7376 1.39586 -3.71651
HEad  -32.9534 -0.431635 -4.32774
LeftShoulder1  7.84711 -24.9697 -21.0011
LeftArm  -36.5995 -74.0911 -19.6747
LeftForeArm  -14.7697 3.31167 -2.85943
LeftHand  -0.244104 0.0205437 5.32207
RightShoulder  3.91945 15.7826 13.3531
RightArm  -39.1223 65.5556 23.6492
RightForeArm  -45.8086 9.17124 5.95654
RightHand  -4.37067 15.0544 -24.7797
LeftUpLeg  -24.2079 19.9099 -1.8733
LeftLeg  19.4227 2.75683 1.40258
LeftFoot  -5.35714 0.348484 -6.0459
LeftToes  1.45487e-011 -6.19069e-011 1.65092e-011
606
root  42.3822 39.1615 -51.2924 8.37711 0.760318 4.05234
RightUpLeg  -31.1266 -19.0392 -5.46969
RightLeg  12.6826 -12.9087 -0.430465
RightFoot  0.517892 -0.407253 3.94106
RightToes  5.82063e-011 0 -3.6325e-017
Spine  62.8271 -3.60099 5.91378
Spine1  14.1229 1.97093 -4.16712
HEad  -33.5069 -1.27525 -4.39658
LeftShoulder1  8.47184 -25.358 -22.8896
LeftArm  -34.4989 -73.9275 -20.7973
LeftForeArm  -13.8616 3.97514 -3.34484
LeftHand  -0.244104 0.0205437 5.32207
RightShoulder  4.13942 15.8914 14.4713
RightArm  -38.0704 64.9243 23.8503
RightForeArm  -45.5244 8.10341 5.98201
RightHand  -4.24413 15.1058 -24.0322
LeftUpLeg  -23.9383 20.7514 -2.73117
LeftLeg  19.6175 2.9799 1.43968
LeftFoot  -5.59708 0.291606 -5.1451
LeftToes  1.45487e-011 -6.19069e-011 1.65092e-011
607
root  42.9066 39.1819 -51.4425 8.10666 0.170854 3.92255
RightUpLeg  -31.8484 -17.1005 -5.45647
RightLeg  13.5048 -9.58263 -1.03351
RightFoot  -1.78052 -0.240582 2.72502
RightToes  5.82063e-011 0 -3.6325e-017
Spine  62.6647 -3.33264 5.54338
Spine1  14.0658 2.12242 -4.34222
HEad  -34.3578 -1.57718 -4.63291
LeftShoulder1  8.86749 -25.5832 -24.0752
LeftArm  -33.2237 -73.0072 -21.339
LeftForeArm  -13.5161 4.5445 -3.56309
LeftHand  -0.244104 0.0205437 5.32207
RightShoulder  4.27113 15.9718 15.1152
RightArm  -35.7719 64.6827 25.328
RightForeArm  -45.1058 7.02134 6.19253
RightHand  -3.92426 14.6999 -22.7331
LeftUpLeg  -23.811 21.313 -3.45396
LeftLeg  19.6042 2.99598 1.30639
LeftFoot  -5.67009 0.248041 -4.31975
LeftToes  1.45487e-011 -6.19069e-011 1.65092e-011
608
root  43.33 39.2296 -51.5155 8.06464 0.0379371 3.92502
RightUpLeg  -32.9453 -16.4856 -4.66972
RightLeg  15.1525 -6.84292 -1.49423
RightFoot  -2.94319 -0.119043 1.37457
RightToes  5.82063e-011 0 -3.6325e-017
Spine  62.4774 -3.56807 5.28817
Spine1  14.0247 1.86114 -4.83381
HEad  -35.5759 -1.48496 -4.10964
LeftShoulder1  8.77865 -25.4639 -23.8868
LeftArm  -32.4313 -71.9202 -22.1709
LeftForeArm  -13.3692 4.65395 -3.47475
LeftHand  -0.244104 0.0205437 5.32207
RightShoulder  4.46207 16.1459 15.9569
RightArm  -33.5547 64.634 27.0284
RightForeArm  -44.371 6.3775 6.43393
RightHand  -3.68937 14.4377 -21.7032
LeftUpLeg  -23.6401 21.4959 -4.01938
LeftLeg  19.2566 2.85508 1.01378
LeftFoot  -5.79725 0.231202 -4.05602
LeftToes  1.45487e-011 -6.19069e-011 1.65092e-011
609
root  43.6642 39.3065 -51.5237 8.09811 0.0727029 3.97284
RightUpLeg  -34.2473 -18.1527 -2.39086
RightLeg  17.2114 -4.99085 -1.73538
RightFoot  -2.44697 -0.0699561 0.674986
RightToes  5.82063e-011 0 -3.6325e-017
Spine  62.5163 -4.05442 5.38227
Spine1  13.8106 1.64891 -5.57312
HEad  -36.5135 -1.61936 -3.03813
LeftShoulder1  8.75973 -25.3464 -23.9507
LeftArm  -31.1693 -70.7523 -23.5463
LeftForeArm  -12.8274 4.06217 -3.50585
LeftHand  -0.244104 0.0205437 5.32207
RightShoulder  4.88283 16.5583 17.7279
RightArm  -32.0043 63.9606 27.4474
RightForeArm  -43.3705 6.54663 6.8108
RightHand  -3.57858 14.42 -21.0944
LeftUpLeg  -23.172 21.2241 -4.25461
LeftLeg  18.5086 3.22557 0.561647
LeftFoot  -5.68729 0.226369 -3.89635
LeftToes  1.45487e-011 -6.19069e-011 1.65092e-011
610
root  43.9196 39.3699 -51.456 8.21216 0.0853098 4.00681
RightUpLeg  -35.2282 -21.7343 1.20302
RightLeg  18.4507 -3.81124 -1.68715
RightFoot  -1.66505 -0.166214 1.83064
RightToes  5.82063e-011 0 -3.6325e-017
Spine  62.4992 -4.26008 5.4969
Spine1  13.8041 1.65825 -5.74779
HEad  -37.3064 -2.18587 -2.41844
LeftShoulder1  8.984 -25.3369 -24.7727
LeftArm  -29.9835 -69.7608 -24.6084
LeftForeArm  -12.1993 2.96822 -3.71744
LeftHand  -0.244104 0.0205437 5.32207
RightShoulder  5.17012 16.7496 19.0108
RightArm  -30.8535 62.9326 27.3974
RightForeArm  -42.4867 7.56403 7.26544
RightHand  -3.47158 14.287 -20.6229
LeftUpLeg  -22.6291 20.2378 -4.06303
LeftLeg  17.8724 4.52073 0.0402478
LeftFoot  -5.44366 0.198626 -3.22004
LeftToes  1.45487e-011 -6.19069e-011 1.65092e-011
611
root  44.0931 39.4141 -51.3115 8.49396 0.248645 4.03024
RightUpLeg  -35.0325 -25.4833 5.01688
RightLeg  17.595 -3.45493 -1.22489
RightFoot  -1.5716 -0.300368 3.37081
RightToes  5.82063e-011 0 -3.6325e-017
Spine  62.2515 -4.08138 5.4903
Spine1  13.9655 1.58957 -4.83559
HEad  -38.0067 -2.81824 -2.40682
LeftShoulder1  9.37341 -25.4876 -25.9979
LeftArm  -29.2863 -68.8104 -24.9194
LeftForeArm  -11.7037 1.83268 -3.97212
LeftHand  -0.244104 0.0205437 5.32207
RightShoulder  5.20647 16.5914 19.4216
RightArm  -29.3953 61.9252 27.7579
RightForeArm  -42.3315 9.19039 7.80447
RightHand  -3.45982 14.1452 -20.6988
LeftUpLeg  -22.2675 19.3017 -3.85374
LeftLeg  17.3526 5.44266 -0.427282
LeftFoot  -5.38292 0.184025 -2.91487
LeftToes  1.45487e-011 -6.19069e-011 1.65092e-011
612
root  44.166 39.4607 -51.1123 8.84393 0.750265 4.20737
RightUpLeg  -32.5212 -24.7209 5.56924
RightLeg  14.6155 -7.19112 0.251931
RightFoot  -1.22708 -0.126671 1.38746
RightToes  5.82063e-011 0 -3.6325e-017
Spine  61.9872 -3.91191 5.50325
Spine1  14.045 1.1516 -3.49413
HEad  -38.4123 -3.14034 -2.08087
LeftShoulder1  9.63384 -25.5862 -26.8087
LeftArm  -28.6405 -67.8567 -25.3953
LeftForeArm  -11.0528 1.0728 -4.09751
LeftHand  -0.244104 0.0205437 5.32207
RightShoulder  5.24904 16.3895 19.9356
RightArm  -27.2642 60.8457 28.4876
RightForeArm  -43.129 11.1644 8.27265
RightHand  -3.7113 14.4802 -21.7736
LeftUpLeg  -22.0154 19.3241 -4.19248
LeftLeg  16.6511 4.81021 -0.700165
LeftFoot  -5.33534 0.205601 -3.30598
LeftToes  1.45487e-011 -6.19069e-011 1.65092e-011
613
root  44.1553 39.4939 -50.8731 9.06839 1.28329 4.58862
RightUpLeg  -28.7864 -16.6347 1.3454
RightLeg  11.4607 -16.9213 2.34447
RightFoot  0.264265 0.467577 -4.51007
RightToes  5.82063e-011 0 -3.6325e-017
Spine  62.0315 -3.99161 5.63598
Spine1  13.7767 0.651142 -2.83808
HEad  -38.4451 -3.38073 -0.997303
LeftShoulder1  9.68547 -25.4839 -27.115
LeftArm  -27.4834 -67.1635 -26.9078
LeftForeArm  -10.0049 0.908235 -4.08301
LeftHand  -0.244104 0.0205437 5.32207
RightShoulder  5.44486 16.3808 21.0007
RightArm  -24.8108 59.3345 29.1109
RightForeArm  -44.2644 13.2629 8.4322
RightHand  -4.10688 15.2344 -23.1555
LeftUpLeg  -21.8539 19.8238 -5.03585
LeftLeg  16.1891 3.59574 -0.466443
LeftFoot  -5.0208 0.220958 -3.45972
LeftToes  1.45487e-011 -6.19069e-011 1.65092e-011
614
root  44.1535 39.5016 -50.6001 9.23157 1.19892 4.65622
RightUpLeg  -27.7783 -11.4578 -0.554015
RightLeg  10.3721 -21.361 2.93898
RightFoot  2.07653 1.10426 -9.28794
RightToes  5.82063e-011 0 -3.6325e-017
Spine  62.3506 -4.17194 6.0714
Spine1  13.2556 0.647267 -3.07389
HEad  -38.3568 -3.88134 -0.00360805
LeftShoulder1  9.72044 -25.3046 -27.4585
LeftArm  -26.0707 -66.8632 -28.8421
LeftForeArm  -8.96977 1.18633 -4.05303
LeftHand  -0.244104 0.0205437 5.32207
RightShoulder  5.59826 16.4661 21.6947
RightArm  -22.7954 57.5802 29.6589
RightForeArm  -44.8858 15.1331 8.27518
RightHand  -4.3512 15.8045 -23.8397
LeftUpLeg  -22.0071 19.9505 -5.63982
LeftLeg  16.5523 3.36372 0.466782
LeftFoot  -4.7684 0.204033 -3.0523
LeftToes  1.45487e-011 -6.19069e-011 1.65092e-011
615
root  44.214 39.5019 -50.3106 9.44513 0.462712 3.91571
RightUpLeg  -27.8624 -11.5097 -0.0134479
RightLeg  10.5605 -20.1321 3.36024
RightFoot  3.04855 1.23736 -9.61392
RightToes  5.82063e-011 0 -3.6325e-017
Spine  62.4772 -4.31388 6.86968
Spine1  12.8 1.10239 -3.5276
HEad  -38.3038 -4.3315 0.0827681
LeftShoulder1  9.82218 -25.1992 -27.9523
LeftArm  -25.1016 -66.5934 -29.925
LeftForeArm  -8.65114 1.43076 -4.11505
LeftHand  -0.244104 0.0205437 5.32207
RightShoulder  5.56595 16.5041 21.4655
RightArm  -21.4416 56.3969 30.3437
RightForeArm  -44.9321 16.376 8.05393
RightHand  -4.40563 15.9895 -23.9222
LeftUpLeg  -22.4988 19.4749 -5.23316
LeftLeg  17.7541 4.29152 1.70686
LeftFoot  -5.01567 0.184898 -2.80173
LeftToes  1.45487e-011 -6.19069e-011 1.65092e-011
616
root  44.2729 39.4772 -50.023 9.68536 -0.219985 2.8136
RightUpLeg  -27.5355 -12.3921 0.814502
RightLeg  10.3588 -19.0204 4.50622
RightFoot  3.04976 1.03643 -8.02302
RightToes  5.82063e-011 0 -3.6325e-017
Spine  62.3062 -4.42121 7.56782
Spine1  12.7008 1.40002 -3.60557
HEad  -38.1531 -4.17744 -0.265949
LeftShoulder1  9.85944 -25.0759 -28.2404
LeftArm  -24.7045 -65.9152 -30.0642
LeftForeArm  -9.16473 1.28725 -4.24046
LeftHand  -0.244104 0.0205437 5.32207
RightShoulder  5.53414 16.5461 21.2336
RightArm  -20.4483 56.2435 30.8181
RightForeArm  -44.6769 16.8592 7.99028
RightHand  -4.47655 16.1483 -24.1172
LeftUpLeg  -23.523 18.4925 -3.96581
LeftLeg  20.1634 5.64689 2.64152
LeftFoot  -5.33889 0.179458 -2.80155
LeftToes  1.45487e-011 -6.19069e-011 1.65092e-011
617
root  44.2588 39.4542 -49.7699 9.81848 -0.423954 2.08093
RightUpLeg  -26.7631 -11.1717 0.713771
RightLeg  9.62363 -20.5114 5.5379
RightFoot  2.96488 1.03421 -8.05698
RightToes  5.82063e-011 0 -3.6325e-017
Spine  62.2003 -4.45339 7.77966
Spine1  12.8557 1.21973 -3.17805
HEad  -37.9465 -3.51428 -0.123018
LeftShoulder1  9.81903 -24.7723 -28.4814
LeftArm  -24.4178 -64.9754 -30.1808
LeftForeArm  -9.89218 0.851921 -4.33898
LeftHand  -0.244104 0.0205437 5.32207
RightShoulder  5.67947 16.6989 21.7745
RightArm  -19.7602 56.6366 30.6737
RightForeArm  -43.936 16.8429 8.04714
RightHand  -4.59897 16.4419 -24.4282
LeftUpLeg  -25.3621 18.1149 -3.00525
LeftLeg  23.8474 6.17266 3.31006
LeftFoot  -4.30818 0.164912 -2.30315
LeftToes  1.45487e-011 -6.19069e-011 1.65092e-011
